<svg width="16" height="16" viewBox="0 0 16 16" fill="none" xmlns="http://www.w3.org/2000/svg">
<g id="add small">
<path id="Vector" d="M7.42857 8.57143H4.57143C4.40952 8.57143 4.27381 8.51667 4.16429 8.40714C4.05476 8.29762 4 8.1619 4 8C4 7.8381 4.05476 7.70238 4.16429 7.59286C4.27381 7.48333 4.40952 7.42857 4.57143 7.42857H7.42857V4.57143C7.42857 4.40952 7.48333 4.27381 7.59286 4.16429C7.70238 4.05476 7.8381 4 8 4C8.1619 4 8.29762 4.05476 8.40714 4.16429C8.51667 4.27381 8.57143 4.40952 8.57143 4.57143V7.42857H11.4286C11.5905 7.42857 11.7262 7.48333 11.8357 7.59286C11.9452 7.70238 12 7.8381 12 8C12 8.1619 11.9452 8.29762 11.8357 8.40714C11.7262 8.51667 11.5905 8.57143 11.4286 8.57143H8.57143V11.4286C8.57143 11.5905 8.51667 11.7262 8.40714 11.8357C8.29762 11.9452 8.1619 12 8 12C7.8381 12 7.70238 11.9452 7.59286 11.8357C7.48333 11.7262 7.42857 11.5905 7.42857 11.4286V8.57143Z" fill="#238823"/>
</g>
</svg>
